# xmcd
# 
# Track frame offsets:
#     150
#     11566
#     27685
#     41518
#     54419
#     68633
#     81183
#     91096
#     105422
#     117718
#     133608
#     146394
# 
# Disc length: 2134
# 
# Revision: 1
# Processed by: cddbd v1.5.2PL0 Copyright (c) Steve Scherf et al.
# Submitted via: fre:ac v1.1beta1pre5
# 
DISCID=9b08540c
DTITLE=Various Artist - Volksmusik-10-Cd Wallet Box
DYEAR=0
DGENRE=Volksmusik
TTITLE0=Lolita - Ein Haus steht leer
TTITLE1=Tommy Peters - Meine Freunde
TTITLE2=Geschwister Leismann - Rote Rosen, rote Lippen, roter Wein
TTITLE3=Romanticas - Die alte Kirchturmuhr
TTITLE4=Jacqueline Bach - Singe, tanze, lache mit mir
TTITLE5=Medium Terzett - Winnetou
TTITLE6=Sandra Stein - Am Himmel stehen Sterne
TTITLE7=Chris Wolf - Immer wenn ich deine Nähe spür
TTITLE8=Marianne Hagen - Sieben Jahre sind vergangen
TTITLE9=Graham Bonney - Gegen Liebe ist kein Kraut gewachsen
TTITLE10=Die lustigen Raabtaler - Du bist so ein lieber Kerl
TTITLE11=Markus Lenz - I hab a bisserl träumt von dir
EXTD=
EXTT0=
EXTT1=
EXTT2=
EXTT3=
EXTT4=
EXTT5=
EXTT6=
EXTT7=
EXTT8=
EXTT9=
EXTT10=
EXTT11=
PLAYORDER=
